# xmcd
#
# Track frame offsets: 
#        150
#        14144
#        30197
#        42053
#        53278
#        66635
#        78111
#        90311
#        102414
#        113813
#        127055
#        136939
#        148404
#        162402
#        178458
#        190314
#        201543
#        214903
#        226379
#        238579
#        250685
#        262084
#        275326
#        285214
#
# Disc length: 3951 seconds
#
# Revision: 0
# Processed by: cddbd v1.5.2PL0 Copyright (c) Steve Scherf et al.
# Submitted via: ExactAudioCopy v0.95b3
#
DISCID=630f6d18
DTITLE=The Monkees - The Monkees Complete 27 of 28 
DYEAR=1900
DGENRE=
TTITLE0=Oh My My
TTITLE1=Ticket On A Ferry Ride
TTITLE2=You're So Good To Me
TTITLE3=It's Got To Be Love
TTITLE4=Acapulco Sun
TTITLE5=99 Pounds
TTITLE6=Tell Me Love
TTITLE7=Do You Feel It Too
TTITLE8=I Love You Better
TTITLE9=All Alone In The Dark
TTITLE10=Midnight Train
TTITLE11=I Never Thought It Peculiar
TTITLE12=Oh My My (mono)
TTITLE13=Ticket On A Ferry Ride (mono)
TTITLE14=You're So Good To Me (mono)
TTITLE15=It's Got To Be Love (mono)
TTITLE16=Acapulco Sun (mono)
TTITLE17=99 Pounds (mono)
TTITLE18=Tell Me Love (mono)
TTITLE19=Do You Feel It Too (mono)
TTITLE20=I Love You Better (mono)
TTITLE21=All Alone In The Dark (mono)
TTITLE22=Midnight Train (mono)
TTITLE23=I Never Thought It Peculiar (mono)
EXTD=
EXTT0=
EXTT1=
EXTT2=
EXTT3=
EXTT4=
EXTT5=
EXTT6=
EXTT7=
EXTT8=
EXTT9=
EXTT10=
EXTT11=
EXTT12=
EXTT13=
EXTT14=
EXTT15=
EXTT16=
EXTT17=
EXTT18=
EXTT19=
EXTT20=
EXTT21=
EXTT22=
EXTT23=
PLAYORDER=
